<svg width="391" height="481" viewBox="0 0 391 481" fill="none" xmlns="http://www.w3.org/2000/svg">
<g clip-path="url(#clip0_1_304)">
<path d="M146.273 363.632C146.298 363.89 146.332 364.15 146.357 364.408C147.246 372.493 148.139 380.584 149.474 388.949C76.237 401.77 3.05427 415.736 -69.5896 427.882C-70.4715 323.896 -68.0716 219.43 -60.8445 117.973C2.85928 102.325 66.5316 86.4792 130.225 70.772C130.664 71.0558 131.096 71.343 131.49 74.4838C143.475 177.046 137.4 283.019 146.273 363.632Z" fill="#A0B4BB"/>
</g>
<path d="M63.3274 227.128C110.455 163.297 156.665 98.7767 200.937 33.2736C236.209 49.8814 260.597 72.3086 293.988 92.4591C312.015 103.339 334.033 120.129 348.959 134.653C305.018 199.939 257.145 262.559 204.973 323.324C194.946 318.826 186.859 314.501 176.719 308.712C164.263 301.598 150.839 290.277 138.313 283.28C124.204 275.396 111.251 265.607 98.3552 255.848C86.5299 246.913 74.7084 237.972 63.3274 227.128Z" fill="white"/>
<defs>
<clipPath id="clip0_1_304">
<rect width="391" height="481" fill="white"/>
</clipPath>
</defs>
</svg>
